<svg xmlns="http://www.w3.org/2000/svg" fill="none" viewBox="0 0 75 100"><path fill="#000" d="M25.317 66.8c0-7.2 5.5-11.1 12.4-11.1 6.6 0 12 4.5 12 11.2 0 7-5.2 11.8-12 11.8s-12.4-4.7-12.4-11.9Zm-11.3-31.1c0 6.9 3.5 12.5 10.3 14.4v.2c-8.2 2-13.2 8.3-13.2 17.2 0 15.1 13.1 21.9 26.6 21.9 13 0 26.2-7.3 26.2-22 0-8.8-4.8-15.2-13.1-17.1v-.2c6.6-2.2 10.2-7.8 10.2-14.7 0-6.8-6-18.8-23.4-18.8-11.4 0-23.6 6.5-23.6 19.1Zm12.9 1.3c0-6.2 5-9.7 10.7-9.7 8.8 0 10.5 6.1 10.5 9.7 0 6-4.7 9.2-10.5 9.2-5.7 0-10.7-3.1-10.7-9.2Z"/></svg>